<svg xmlns="http://www.w3.org/2000/svg" width="215.902" height="235.846" viewBox="0 0 215.902 235.846">
  <g id="Group_27751" data-name="Group 27751" transform="translate(0 0)">
    <path id="Path_95" data-name="Path 95" d="M1023.217,414.9h-1.451v-4.571a7.2,7.2,0,1,0-14.4,0V414.9H976.157v-3.913a7.2,7.2,0,0,0-14.4,0V414.9H930.547v-4.571a7.2,7.2,0,0,0-14.4,0v4.739A56.122,56.122,0,0,0,863.4,470.99V582.883a56.158,56.158,0,0,0,56.095,56.09h103.723a56.152,56.152,0,0,0,56.085-56.09V470.99A56.153,56.153,0,0,0,1023.217,414.9ZM1064.9,582.883a41.73,41.73,0,0,1-41.682,41.687H919.494A41.738,41.738,0,0,1,877.8,582.883V470.99a41.718,41.718,0,0,1,38.341-41.515v3.639a7.2,7.2,0,0,0,14.4,0V429.3h31.207v4.469a7.2,7.2,0,1,0,14.4,0V429.3h31.206v3.812a7.2,7.2,0,1,0,14.4,0V429.3h1.451A41.729,41.729,0,0,1,1064.9,470.99Z" transform="translate(-863.399 -403.127)" fill="#2e2842"/>
    <path id="Path_96" data-name="Path 96" d="M972.249,419.251H882.21a7.2,7.2,0,1,0,0,14.4h90.039a7.2,7.2,0,1,0,0-14.4Z" transform="translate(-819.273 -341.839)" fill="#2e2842"/>
    <path id="Path_97" data-name="Path 97" d="M972.249,428.751H882.21a7.2,7.2,0,0,0,0,14.4h90.039a7.2,7.2,0,0,0,0-14.4Z" transform="translate(-819.273 -305.729)" fill="#2e2842"/>
    <path id="Path_98" data-name="Path 98" d="M972.249,438.251H882.21a7.2,7.2,0,0,0,0,14.4h90.039a7.2,7.2,0,0,0,0-14.4Z" transform="translate(-819.273 -269.619)" fill="#2e2842"/>
  </g>
</svg>
